<?xml version="1.0" standalone="no"?>
<!DOCTYPE svg PUBLIC "-//W3C//DTD SVG 20010904//EN"
 "http://www.w3.org/TR/2001/REC-SVG-20010904/DTD/svg10.dtd">
<svg version="1.0" xmlns="http://www.w3.org/2000/svg"
 width="575.000000pt" height="182.000000pt" viewBox="0 0 575.000000 182.000000"
 preserveAspectRatio="xMidYMid meet">

<g transform="translate(0.000000,182.000000) scale(0.100000,-0.100000)"
fill="#000000" stroke="none">
<path d="M530 1115 l0 -285 295 0 295 0 0 55 0 55 -230 0 -231 0 3 68 3 67
133 3 132 3 0 44 0 44 -132 3 -133 3 0 60 0 60 223 3 222 2 0 50 0 50 -290 0
-290 0 0 -285z"/>
<path d="M1360 1115 l0 -285 55 0 55 0 0 197 0 196 28 -40 c101 -149 209 -282
227 -282 18 0 126 133 228 282 l27 40 0 -196 0 -197 60 0 60 0 0 285 0 285
-52 0 -53 -1 -107 -142 c-59 -78 -118 -155 -131 -171 l-23 -29 -134 172 -133
171 -54 0 -53 0 0 -285z"/>
<path d="M2380 1115 l0 -285 65 0 65 0 0 109 0 110 216 3 216 3 24 28 c22 26
24 36 24 143 0 110 -1 116 -25 138 -14 13 -39 26 -56 30 -18 3 -143 6 -280 6
l-249 0 0 -285z m474 163 c18 -26 21 -80 6 -109 -10 -18 -23 -19 -180 -19
l-170 0 0 75 0 75 164 0 c159 0 165 -1 180 -22z"/>
<path d="M3200 1115 l0 -285 65 0 65 0 0 285 0 285 -65 0 -65 0 0 -285z"/>
<path d="M3681 1390 c-66 -16 -66 -16 -69 -269 l-3 -229 25 -28 24 -29 274 -3
c291 -3 338 2 360 41 15 25 19 411 5 459 -16 59 -35 63 -322 65 -143 1 -275
-2 -294 -7z m489 -270 l0 -180 -215 0 -215 0 0 180 0 180 215 0 215 0 0 -180z"/>
<path d="M4587 1393 c-4 -3 -7 -132 -7 -285 l0 -278 65 0 65 0 0 105 0 105 66
0 66 0 111 -105 112 -105 92 0 c51 0 93 2 93 4 0 2 -55 48 -122 102 l-121 99
71 10 c110 15 117 26 117 174 0 134 -8 153 -74 171 -40 11 -524 14 -534 3z
m464 -103 c28 -16 28 -124 -1 -140 -12 -6 -80 -9 -177 -8 l-158 3 -3 64 c-2
35 -1 70 2 77 4 11 39 14 161 14 89 0 165 -4 176 -10z"/>
<path d="M534 666 c-3 -8 -4 -27 -2 -43 3 -28 4 -28 76 -31 63 -2 73 -5 70
-20 -2 -13 -16 -18 -61 -20 -35 -2 -57 1 -57 8 0 12 -27 13 -35 1 -14 -23 27
-41 93 -41 84 0 94 7 90 56 l-3 39 -67 3 c-60 3 -68 5 -68 22 0 17 7 20 45 20
25 0 54 -5 65 -12 22 -14 35 -6 27 17 -9 21 -165 22 -173 1z"/>
<path d="M1190 606 c0 -86 0 -86 100 -86 100 0 100 0 100 86 l0 74 -100 0
-100 0 0 -74z m160 -6 l0 -50 -60 0 -60 0 0 50 0 50 60 0 60 0 0 -50z"/>
<path d="M1870 612 c0 -40 5 -73 12 -80 15 -15 132 -16 159 -2 16 9 19 22 19
80 0 63 -2 70 -20 70 -18 0 -20 -7 -20 -65 l0 -65 -55 0 -55 0 0 65 c0 58 -2
65 -20 65 -18 0 -20 -7 -20 -68z"/>
<path d="M2540 600 c0 -64 3 -80 15 -80 10 0 15 10 15 30 0 24 4 30 21 30 12
0 37 -13 56 -30 20 -18 45 -30 61 -30 l27 1 -33 28 -32 28 25 11 c22 10 26 18
23 50 l-3 37 -87 3 -88 3 0 -81z m135 35 c0 -17 -8 -20 -52 -23 -46 -3 -53 -1
-53 16 0 28 10 33 60 30 37 -3 45 -6 45 -23z"/>
<path d="M3217 673 c-12 -11 -8 -128 5 -141 12 -12 124 -17 152 -6 31 12 14
64 -20 64 -2 0 -4 -9 -4 -20 0 -17 -7 -20 -50 -20 l-50 0 0 50 0 50 50 0 c28
0 50 -4 50 -10 0 -5 9 -10 20 -10 15 0 20 7 20 25 0 25 -1 25 -83 25 -46 0
-87 -3 -90 -7z"/>
<path d="M3870 600 c0 -73 2 -80 20 -80 18 0 20 7 20 80 0 73 -2 80 -20 80
-18 0 -20 -7 -20 -80z"/>
<path d="M4382 603 c3 -65 6 -78 21 -81 14 -3 17 5 17 53 l0 56 69 -56 c39
-30 75 -55 80 -55 7 0 11 31 11 80 0 64 -3 80 -15 80 -11 0 -15 -12 -15 -45 0
-25 -4 -45 -9 -45 -5 0 -35 20 -67 45 -31 25 -66 45 -76 45 -17 0 -19 -7 -16
-77z"/>
<path d="M5067 673 c-4 -3 -7 -37 -7 -74 0 -78 1 -79 99 -79 83 0 104 13 99
60 -3 34 -4 35 -50 38 -38 2 -48 0 -48 -12 0 -11 10 -16 30 -16 23 0 30 -4 30
-20 0 -18 -7 -20 -60 -20 l-60 0 0 51 0 51 75 -3 c41 -2 75 -1 75 4 0 4 0 12
0 17 0 11 -172 14 -183 3z"/>
</g>
</svg>
